<svg width="15" height="17" viewBox="0 0 15 17" fill="none" xmlns="http://www.w3.org/2000/svg">
<path d="M12.5 0.5C13.5938 0.5 14.5 1.40625 14.5 2.5V14.5C14.5 15.625 13.5938 16.5 12.5 16.5H2.5C1.375 16.5 0.5 15.625 0.5 14.5V2.5C0.5 1.40625 1.375 0.5 2.5 0.5H12.5ZM2.5 4V5C2.5 5.28125 2.71875 5.5 3 5.5H4C4.25 5.5 4.5 5.28125 4.5 5V4C4.5 3.75 4.25 3.5 4 3.5H3C2.71875 3.5 2.5 3.75 2.5 4ZM4.5 13V12C4.5 11.75 4.25 11.5 4 11.5H3C2.71875 11.5 2.5 11.75 2.5 12V13C2.5 13.2812 2.71875 13.5 3 13.5H4C4.25 13.5 4.5 13.2812 4.5 13ZM5.59375 7.625C5.78125 7.4375 5.78125 7.09375 5.59375 6.90625C5.40625 6.71875 5.0625 6.71875 4.875 6.90625L3.5 8.3125L3.09375 7.90625C2.90625 7.71875 2.5625 7.71875 2.375 7.90625C2.1875 8.09375 2.1875 8.4375 2.375 8.625L3.125 9.375C3.21875 9.46875 3.34375 9.5 3.5 9.5C3.625 9.5 3.75 9.46875 3.84375 9.375L5.59375 7.625ZM12 13C12.25 13 12.5 12.7812 12.5 12.5C12.5 12.25 12.25 12 12 12H7C6.71875 12 6.5 12.25 6.5 12.5C6.5 12.7812 6.71875 13 7 13H12ZM12 9C12.25 9 12.5 8.78125 12.5 8.5C12.5 8.25 12.25 8 12 8H7C6.71875 8 6.5 8.25 6.5 8.5C6.5 8.78125 6.71875 9 7 9H12ZM12 5C12.25 5 12.5 4.78125 12.5 4.5C12.5 4.25 12.25 4 12 4H7C6.71875 4 6.5 4.25 6.5 4.5C6.5 4.78125 6.71875 5 7 5H12Z" fill="#63736B"/>
</svg>
