<svg width="20" height="17" viewBox="0 0 20 17" fill="none" xmlns="http://www.w3.org/2000/svg">
<path d="M13.2812 15.5938V15.875C13.2812 16.0625 13.3125 16.2188 13.375 16.375C13.25 16.4688 13.0938 16.5 12.9062 16.5H1.0625C0.46875 16.5 0 16.0312 0 15.4375C0 12.4375 2.40625 10 5.40625 10H8.5625C9.0625 10 9.53125 10.0938 10 10.2188C10 10.625 10.2188 11.0312 10.5938 11.25L10.8438 11.4062C10.8438 11.4688 10.8438 11.5625 10.8438 11.625L10.5938 11.7812C10.0938 12.0312 9.875 12.625 10.0312 13.1875C10.2812 14 10.7188 14.75 11.2812 15.375C11.5312 15.6562 11.875 15.7812 12.1875 15.7812C12.4062 15.7812 12.625 15.7188 12.8125 15.625L13.0625 15.4688C13.125 15.5312 13.1875 15.5625 13.2812 15.5938ZM7 8.5C4.78125 8.5 3 6.71875 3 4.5C3 2.3125 4.78125 0.5 7 0.5C9.1875 0.5 11 2.3125 11 4.5C11 6.71875 9.1875 8.5 7 8.5ZM19.0625 12.1875L19.875 12.6562C19.9688 12.6875 20 12.8125 19.9688 12.9062C19.75 13.5938 19.4062 14.1875 18.9375 14.7188C18.875 14.7812 18.75 14.8125 18.6562 14.75L17.8438 14.2812C17.5 14.5625 17.125 14.8125 16.6875 14.9375V15.875C16.6875 16 16.625 16.0938 16.5312 16.0938C15.8438 16.25 15.1562 16.25 14.4375 16.0938C14.3438 16.0938 14.2812 16 14.2812 15.875V14.9375C13.8438 14.8125 13.4688 14.5625 13.125 14.2812L12.3125 14.75C12.2188 14.8125 12.0938 14.7812 12.0312 14.7188C11.5625 14.1875 11.1875 13.5938 11 12.9062C10.9688 12.8125 11 12.6875 11.0938 12.6562L11.9062 12.1875C11.8125 11.75 11.8125 11.2812 11.9062 10.8438L11.0938 10.375C11 10.3438 10.9688 10.2188 11 10.125C11.1875 9.4375 11.5625 8.84375 12.0312 8.3125C12.0938 8.25 12.2188 8.21875 12.3125 8.28125L13.125 8.75C13.4688 8.46875 13.8438 8.21875 14.2812 8.09375V7.15625C14.2812 7.03125 14.3438 6.9375 14.4375 6.9375C15.0938 6.78125 15.8125 6.78125 16.5 6.9375C16.625 6.9375 16.6875 7.03125 16.6875 7.15625V8.09375C17.125 8.21875 17.5 8.46875 17.8438 8.75L18.6562 8.28125C18.75 8.21875 18.875 8.25 18.9375 8.3125C19.4062 8.84375 19.75 9.4375 19.9688 10.125C20 10.2188 19.9688 10.3438 19.875 10.375L19.0625 10.8438C19.1562 11.2812 19.1562 11.75 19.0625 12.1875ZM15.5 13.0312C16.3125 13.0312 17 12.3438 17 11.5C17 10.6875 16.3125 10 15.5 10C14.6562 10 13.9688 10.6875 13.9688 11.5C13.9688 12.3438 14.6562 13.0312 15.5 13.0312Z" fill="#63736B"/>
</svg>
